<svg width="398" height="274" viewBox="0 0 398 274" fill="none" xmlns="http://www.w3.org/2000/svg">
<path fill-rule="evenodd" clip-rule="evenodd" d="M81.2314 109.603C81.5189 109.603 81.7986 109.69 82.0281 109.851C82.2576 110.012 82.4245 110.238 82.5035 110.495L83.9379 115.159C84.2467 116.164 84.8261 117.079 85.6213 117.818C86.4166 118.556 87.4014 119.095 88.4827 119.381L93.504 120.714C93.7803 120.787 94.0233 120.943 94.1963 121.156C94.3692 121.369 94.4628 121.629 94.4628 121.896C94.4628 122.163 94.3692 122.422 94.1963 122.636C94.0233 122.849 93.7803 123.004 93.504 123.077L88.4827 124.41C87.4014 124.697 86.4166 125.235 85.6213 125.974C84.8261 126.713 84.2467 127.627 83.9379 128.632L82.5035 133.297C82.4243 133.553 82.2574 133.779 82.0279 133.94C81.7984 134.1 81.5188 134.187 81.2314 134.187C80.944 134.187 80.6644 134.1 80.4349 133.94C80.2054 133.779 80.0385 133.553 79.9593 133.297L78.5249 128.632C78.2161 127.627 77.6367 126.713 76.8415 125.974C76.0463 125.235 75.0615 124.697 73.9801 124.41L68.9588 123.077C68.6826 123.004 68.4395 122.849 68.2666 122.636C68.0936 122.422 68 122.163 68 121.896C68 121.629 68.0936 121.369 68.2666 121.156C68.4395 120.943 68.6826 120.787 68.9588 120.714L73.9801 119.381C75.0615 119.095 76.0463 118.556 76.8415 117.818C77.6367 117.079 78.2161 116.164 78.5249 115.159L79.9593 110.495C80.0383 110.238 80.2052 110.012 80.4347 109.851C80.6642 109.69 80.9439 109.603 81.2314 109.603ZM97.1102 104.686C97.4054 104.686 97.6922 104.778 97.925 104.946C98.1577 105.115 98.323 105.351 98.3947 105.617L98.8499 107.315C99.2662 108.856 100.561 110.059 102.22 110.446L104.048 110.869C104.334 110.935 104.589 111.088 104.771 111.304C104.954 111.52 105.053 111.787 105.053 112.062C105.053 112.336 104.954 112.603 104.771 112.819C104.589 113.036 104.334 113.189 104.048 113.255L102.22 113.678C100.561 114.065 99.2662 115.268 98.8499 116.808L98.3947 118.506C98.3236 118.773 98.1585 119.01 97.9257 119.179C97.6929 119.348 97.4058 119.44 97.1102 119.44C96.8146 119.44 96.5276 119.348 96.2948 119.179C96.062 119.01 95.8969 118.773 95.8258 118.506L95.3706 116.808C95.167 116.052 94.746 115.361 94.1524 114.809C93.5589 114.258 92.8151 113.867 92.0008 113.678L90.173 113.255C89.886 113.189 89.6312 113.036 89.449 112.819C89.2668 112.603 89.1679 112.336 89.1679 112.062C89.1679 111.787 89.2668 111.52 89.449 111.304C89.6312 111.088 89.886 110.935 90.173 110.869L92.0008 110.446C92.8151 110.257 93.5589 109.865 94.1524 109.314C94.746 108.763 95.167 108.072 95.3706 107.315L95.8258 105.617C95.8975 105.351 96.0628 105.115 96.2955 104.946C96.5283 104.778 96.815 104.686 97.1102 104.686ZM94.4638 126.813C94.7417 126.813 95.0126 126.894 95.2381 127.045C95.4635 127.196 95.6321 127.409 95.72 127.653L96.4151 129.592C96.6798 130.325 97.2973 130.902 98.0877 131.146L100.175 131.794C100.438 131.876 100.666 132.032 100.828 132.241C100.99 132.45 101.077 132.701 101.077 132.959C101.077 133.216 100.99 133.468 100.828 133.677C100.666 133.886 100.438 134.042 100.175 134.124L98.0877 134.772C97.299 135.017 96.678 135.591 96.4151 136.325L95.7182 138.264C95.63 138.509 95.4614 138.721 95.2363 138.871C95.0112 139.021 94.741 139.102 94.4638 139.102C94.1865 139.102 93.9163 139.021 93.6912 138.871C93.4661 138.721 93.2976 138.509 93.2093 138.264L92.5124 136.325C92.3825 135.964 92.1637 135.635 91.8734 135.365C91.5831 135.096 91.2293 134.892 90.8399 134.772L88.7527 134.124C88.4899 134.042 88.2614 133.886 88.0995 133.677C87.9377 133.468 87.8506 133.216 87.8506 132.959C87.8506 132.701 87.9377 132.45 88.0995 132.241C88.2614 132.032 88.4899 131.876 88.7527 131.794L90.8399 131.146C91.6285 130.9 92.2496 130.327 92.5124 129.592L93.2093 127.653C93.2971 127.409 93.4654 127.196 93.6905 127.045C93.9157 126.894 94.1862 126.813 94.4638 126.813Z" fill="white" stroke="black"/>
<path opacity="0.2" d="M250.994 69.9233C244.867 92.7524 219.976 106.645 195.398 100.953C170.832 95.2613 155.876 72.1379 162.005 49.3101C168.129 26.4784 193.019 12.5836 217.589 18.2752C242.165 23.9668 257.119 47.0929 250.992 69.9233H250.994Z" fill="#F7931A"/>
<path fill-rule="evenodd" clip-rule="evenodd" d="M220.313 54.6632C220.932 50.8165 217.779 48.7487 213.468 47.3692L214.867 42.1584L211.451 41.3679L210.09 46.4414C209.193 46.2336 208.271 46.0376 207.355 45.8433L208.726 40.7364L205.314 39.946L203.915 45.155C203.172 44.9978 202.442 44.8424 201.734 44.6789L201.738 44.6626L197.03 43.5704L196.121 46.9581C196.121 46.9581 198.655 47.4975 198.601 47.5309C199.984 47.8516 200.235 48.7017 200.192 49.3756L198.599 55.3118C198.694 55.3344 198.818 55.3669 198.954 55.4175L198.594 55.3344L196.36 63.6502C196.191 64.0404 195.762 64.6258 194.796 64.4036C194.83 64.4497 192.314 63.8281 192.314 63.8281L190.619 67.4598L195.063 68.4888C195.565 68.6056 196.061 68.7257 196.551 68.8445C196.868 68.9214 197.183 68.9978 197.496 69.0724L196.083 74.3437L199.494 75.1342L200.894 69.9198C201.825 70.1546 202.729 70.3714 203.614 70.5756L202.22 75.7656L205.634 76.5561L207.047 71.2956C212.869 72.3192 217.248 71.9063 219.089 67.0153C220.574 63.0765 219.016 60.8045 215.953 59.322C218.184 58.8423 219.864 57.4791 220.312 54.6632H220.313ZM212.511 64.8255C211.542 68.4406 205.449 66.9448 202.664 66.261C202.415 66.1998 202.192 66.145 202.002 66.1011L203.877 59.1187C204.109 59.1727 204.393 59.2319 204.715 59.299C207.597 59.8997 213.502 61.1306 212.512 64.8255H212.511ZM205.295 56.059C207.618 56.6349 212.684 57.8903 213.566 54.6063C214.469 51.2466 209.543 50.234 207.137 49.7395C206.867 49.6839 206.628 49.6348 206.433 49.5897L204.733 55.9225C204.894 55.9598 205.083 56.0065 205.295 56.059Z" fill="#F7931A"/>
<path opacity="0.2" d="M329.751 144.843C329.751 168.254 309.322 187.232 284.121 187.232C258.92 187.232 238.491 168.254 238.491 144.843C238.491 121.432 258.92 102.453 284.121 102.453C309.322 102.453 329.751 121.432 329.751 144.843" fill="#505050"/>
<g opacity="0.8">
<path d="M283.975 125.174L283.693 126.064V151.887L283.975 152.149L296.879 145.063L283.975 125.174Z" fill="white"/>
<path d="M283.975 125.174L271.072 145.063L283.975 152.149V139.615V125.174Z" fill="white"/>
<path d="M283.975 156.049L283.816 156.228V165.427L283.975 165.858L296.886 148.967L283.975 156.049Z" fill="white"/>
<path d="M283.975 165.858V156.049L271.072 148.967L283.975 165.858Z" fill="white"/>
<path d="M283.975 152.149L296.878 145.063L283.975 139.615V152.149Z" fill="white"/>
<path d="M271.072 145.063L283.975 152.149V139.615L271.072 145.063Z" fill="white"/>
</g>
<path opacity="0.1" d="M252.121 213.68C252.121 237.091 231.692 256.07 206.491 256.07C181.29 256.07 160.861 237.091 160.861 213.68C160.861 190.269 181.29 171.291 206.491 171.291C231.692 171.291 252.121 190.269 252.121 213.68" fill="#BEBEBE"/>
<path d="M204.896 220.812L206.943 213.651L211.789 212.006L212.994 207.798L212.953 207.694L208.183 209.313L211.62 197.289H201.872L197.377 212.98L193.623 214.254L192.383 218.592L196.134 217.32L193.484 226.567H219.428L221.091 220.812H204.896" fill="#E4E4E4"/>
<path opacity="0.2" d="M132.397 187.456C157.731 187.456 178.269 168.377 178.269 144.842C178.269 121.307 157.731 102.228 132.397 102.228C107.062 102.228 86.5247 121.307 86.5247 144.842C86.5247 168.377 107.062 187.456 132.397 187.456Z" fill="#32A4BE"/>
<path opacity="0.2" d="M132.397 187.456C157.731 187.456 178.269 168.377 178.269 144.842C178.269 121.307 157.731 102.228 132.397 102.228C107.062 102.228 86.5247 121.307 86.5247 144.842C86.5247 168.377 107.062 187.456 132.397 187.456Z" fill="#C2A633"/>
<mask id="mask0_103_1288" style="mask-type:luminance" maskUnits="userSpaceOnUse" x="86" y="102" width="93" height="86">
<path d="M132.397 187.456C157.731 187.456 178.269 168.377 178.269 144.842C178.269 121.307 157.731 102.228 132.397 102.228C107.062 102.228 86.5247 121.307 86.5247 144.842C86.5247 168.377 107.062 187.456 132.397 187.456Z" fill="white"/>
</mask>
<g mask="url(#mask0_103_1288)">
<path fill-rule="evenodd" clip-rule="evenodd" d="M133.156 127.749H120.631V143.203H112.989V148.354H120.631V163.807H133.156C139.767 163.807 141.191 163.164 144.04 161.878C144.262 161.778 144.491 161.674 144.733 161.567C148.084 160.073 150.689 157.969 152.546 155.256C154.404 152.544 155.333 149.384 155.333 145.778C155.333 142.173 154.404 139.013 152.546 136.3C150.689 133.587 148.084 131.484 144.733 129.99C141.381 128.496 137.522 127.749 133.156 127.749ZM129.938 148.354V156.956H132.696C136.718 156.956 139.926 155.952 142.32 153.943C144.714 151.934 145.911 149.212 145.911 145.778C145.911 142.344 144.714 139.623 142.32 137.614C139.926 135.605 136.718 134.6 132.696 134.6H129.938V143.203H138.844V148.354H129.938Z" fill="#C2A633"/>
</g>
</svg>
