<svg width="244" height="244" viewBox="0 0 244 244" fill="none" xmlns="http://www.w3.org/2000/svg">
<path d="M207.766 133.649C207.766 186.067 165.272 228.561 112.853 228.561C60.4343 228.561 17.9403 186.067 17.9403 133.649C17.9403 81.2296 60.4343 38.7357 112.853 38.7357C165.272 38.7357 207.766 81.2296 207.766 133.649Z" fill="#D75304" stroke="#0D0D0D" stroke-width="0.2"/>
<path d="M216.638 122.18C216.638 174.599 174.144 217.093 121.725 217.093C69.3063 217.093 26.8124 174.599 26.8124 122.18C26.8124 69.7614 69.3063 27.2674 121.725 27.2674C174.144 27.2674 216.638 69.7614 216.638 122.18Z" fill="#FFDF0D" stroke="#0D0D0D" stroke-width="0.2"/>
<mask id="mask0_37_5" style="mask-type:alpha" maskUnits="userSpaceOnUse" x="28" y="28" width="188" height="188">
<path d="M207.57 157.493C188.071 204.882 133.848 227.492 86.4588 207.993C39.0696 188.495 16.4597 134.271 35.9584 86.8821C55.4571 39.4928 109.68 16.883 157.07 36.3817C204.459 55.8803 227.069 110.104 207.57 157.493Z" fill="white" stroke="black"/>
</mask>
<g mask="url(#mask0_37_5)">
<rect x="125.867" y="17.1789" width="72.2863" height="193.662" transform="rotate(22.3651 125.867 17.1789)" fill="white"/>
</g>
<circle cx="121.743" cy="122.18" r="64.8235" stroke="#0D0D0D"/>
<mask id="path-6-outside-1_37_5" maskUnits="userSpaceOnUse" x="92.1062" y="87.0863" width="65.276" height="77.0526" fill="black">
<rect fill="white" x="92.1062" y="87.0863" width="65.276" height="77.0526"/>
<path d="M94.0745 101.554L93.5488 98.9183L121.887 93.2668C128.791 91.8899 134.257 92.464 138.284 94.989C142.362 97.4387 144.927 101.3 145.978 106.572L146.41 108.737C147.462 114.009 146.58 118.59 143.767 122.48C141.016 126.357 136.188 128.983 129.284 130.36L119.493 132.313L123.286 151.33C123.712 153.464 124.062 154.732 124.338 155.134C124.602 155.473 125.248 155.605 126.277 155.531L133.47 154.781L133.995 157.417L106.316 162.938L105.791 160.301L110.837 158.61C111.816 158.284 112.363 157.914 112.476 157.5C112.576 157.023 112.414 155.718 111.988 153.584L102.375 105.381C101.95 103.247 101.605 102.01 101.342 101.671C101.066 101.27 100.413 101.106 99.384 101.181L94.0745 101.554ZM122.544 96.5619L112.753 98.5146L118.836 129.018L128.627 127.065C131.389 126.514 133.272 124.997 134.278 122.512C135.346 120.015 135.498 116.852 134.735 113.023L133.552 107.092C132.788 103.264 131.441 100.433 129.509 98.599C127.627 96.6902 125.305 96.0111 122.544 96.5619Z"/>
</mask>
<path d="M94.0745 101.554L93.5488 98.9183L121.887 93.2668C128.791 91.8899 134.257 92.464 138.284 94.989C142.362 97.4387 144.927 101.3 145.978 106.572L146.41 108.737C147.462 114.009 146.58 118.59 143.767 122.48C141.016 126.357 136.188 128.983 129.284 130.36L119.493 132.313L123.286 151.33C123.712 153.464 124.062 154.732 124.338 155.134C124.602 155.473 125.248 155.605 126.277 155.531L133.47 154.781L133.995 157.417L106.316 162.938L105.791 160.301L110.837 158.61C111.816 158.284 112.363 157.914 112.476 157.5C112.576 157.023 112.414 155.718 111.988 153.584L102.375 105.381C101.95 103.247 101.605 102.01 101.342 101.671C101.066 101.27 100.413 101.106 99.384 101.181L94.0745 101.554ZM122.544 96.5619L112.753 98.5146L118.836 129.018L128.627 127.065C131.389 126.514 133.272 124.997 134.278 122.512C135.346 120.015 135.498 116.852 134.735 113.023L133.552 107.092C132.788 103.264 131.441 100.433 129.509 98.599C127.627 96.6902 125.305 96.0111 122.544 96.5619Z" fill="#D75304" fill-opacity="0.75"/>
<path d="M94.0745 101.554L93.0938 101.75L93.2661 102.614L94.1447 102.552L94.0745 101.554ZM93.5488 98.9183L93.3532 97.9376L92.3725 98.1332L92.5681 99.1139L93.5488 98.9183ZM138.284 94.989L137.753 95.8363L137.761 95.8413L137.769 95.8462L138.284 94.989ZM143.767 122.48L142.957 121.893L142.951 121.901L143.767 122.48ZM119.493 132.313L119.298 131.332L118.317 131.528L118.513 132.509L119.493 132.313ZM124.338 155.134L123.514 155.7L123.53 155.724L123.548 155.748L124.338 155.134ZM126.277 155.531L126.35 156.528L126.365 156.527L126.381 156.525L126.277 155.531ZM133.47 154.781L134.45 154.586L134.272 153.692L133.366 153.787L133.47 154.781ZM133.995 157.417L134.191 158.398L135.172 158.203L134.976 157.222L133.995 157.417ZM106.316 162.938L105.336 163.133L105.531 164.114L106.512 163.918L106.316 162.938ZM105.791 160.301L105.473 159.353L104.638 159.633L104.81 160.497L105.791 160.301ZM110.837 158.61L110.522 157.661L110.519 157.662L110.837 158.61ZM112.476 157.5L113.44 157.764L113.448 157.735L113.454 157.706L112.476 157.5ZM101.342 101.671L100.517 102.237L100.534 102.262L100.552 102.285L101.342 101.671ZM99.384 101.181L99.4542 102.178L99.4564 102.178L99.384 101.181ZM112.753 98.5146L112.557 97.5339L111.576 97.7295L111.772 98.7102L112.753 98.5146ZM118.836 129.018L117.855 129.213L118.051 130.194L119.032 129.999L118.836 129.018ZM134.278 122.512L133.358 122.119L133.355 122.128L133.351 122.137L134.278 122.512ZM129.509 98.599L128.797 99.301L128.808 99.3129L128.82 99.3244L129.509 98.599ZM95.0552 101.359L94.5295 98.7227L92.5681 99.1139L93.0938 101.75L95.0552 101.359ZM93.7444 99.899L122.082 94.2475L121.691 92.2861L93.3532 97.9376L93.7444 99.899ZM122.082 94.2475C128.855 92.8969 134.026 93.4997 137.753 95.8363L138.815 94.1417C134.487 91.4282 128.727 90.8829 121.691 92.2861L122.082 94.2475ZM137.769 95.8462C141.573 98.1312 143.993 101.732 144.998 106.767L146.959 106.376C145.86 100.868 143.151 96.7463 138.799 94.1318L137.769 95.8462ZM144.998 106.767L145.429 108.933L147.391 108.542L146.959 106.376L144.998 106.767ZM145.429 108.933C146.434 113.968 145.587 118.258 142.957 121.894L144.577 123.066C147.574 118.923 148.489 114.051 147.391 108.542L145.429 108.933ZM142.951 121.901C140.406 125.488 135.861 128.029 129.089 129.38L129.48 131.341C136.516 129.938 141.626 127.225 144.582 123.058L142.951 121.901ZM129.089 129.38L119.298 131.332L119.689 133.294L129.48 131.341L129.089 129.38ZM118.513 132.509L122.305 151.526L124.267 151.135L120.474 132.117L118.513 132.509ZM122.305 151.526C122.52 152.604 122.72 153.481 122.904 154.149C123.075 154.766 123.268 155.342 123.514 155.7L125.163 154.568C125.163 154.568 125.123 154.503 125.053 154.319C124.989 154.148 124.915 153.916 124.832 153.615C124.666 153.015 124.477 152.191 124.267 151.135L122.305 151.526ZM123.548 155.748C123.887 156.184 124.383 156.378 124.82 156.467C125.269 156.559 125.789 156.569 126.35 156.528L126.205 154.533C125.736 154.567 125.419 154.548 125.221 154.508C125.011 154.465 125.052 154.423 125.128 154.521L123.548 155.748ZM126.381 156.525L133.573 155.776L133.366 153.787L126.174 154.536L126.381 156.525ZM132.489 154.977L133.015 157.613L134.976 157.222L134.45 154.586L132.489 154.977ZM133.8 156.437L106.121 161.957L106.512 163.918L134.191 158.398L133.8 156.437ZM107.297 162.742L106.771 160.106L104.81 160.497L105.336 163.133L107.297 162.742ZM106.108 161.25L111.155 159.558L110.519 157.662L105.473 159.353L106.108 161.25ZM111.153 159.559C111.686 159.381 112.163 159.173 112.542 158.916C112.911 158.666 113.295 158.297 113.44 157.764L111.511 157.236C111.544 157.117 111.597 157.14 111.42 157.26C111.253 157.373 110.967 157.513 110.522 157.661L111.153 159.559ZM113.454 157.706C113.544 157.281 113.501 156.676 113.422 156.04C113.336 155.352 113.184 154.466 112.969 153.388L111.008 153.779C111.218 154.836 111.36 155.669 111.437 156.287C111.476 156.596 111.496 156.839 111.503 157.022C111.509 157.218 111.497 157.293 111.497 157.293L113.454 157.706ZM112.969 153.388L103.356 105.185L101.395 105.576L111.008 153.779L112.969 153.388ZM103.356 105.185C103.141 104.108 102.943 103.238 102.761 102.585C102.67 102.259 102.579 101.972 102.487 101.734C102.403 101.516 102.29 101.262 102.131 101.058L100.552 102.285C100.525 102.25 100.554 102.278 100.622 102.454C100.682 102.61 100.753 102.829 100.834 103.121C100.997 103.705 101.184 104.52 101.395 105.576L103.356 105.185ZM102.166 101.105C101.845 100.638 101.361 100.396 100.888 100.277C100.419 100.16 99.8818 100.142 99.3115 100.183L99.4564 102.178C99.9153 102.145 100.219 102.171 100.402 102.217C100.582 102.262 100.562 102.303 100.517 102.237L102.166 101.105ZM99.3138 100.183L94.0043 100.557L94.1447 102.552L99.4542 102.178L99.3138 100.183ZM122.348 95.5812L112.557 97.5339L112.948 99.4953L122.739 97.5426L122.348 95.5812ZM111.772 98.7102L117.855 129.213L119.817 128.822L113.733 98.319L111.772 98.7102ZM119.032 129.999L128.823 128.046L128.432 126.085L118.64 128.037L119.032 129.999ZM128.823 128.046C131.895 127.433 134.066 125.702 135.205 122.887L133.351 122.137C132.479 124.291 130.883 125.596 128.432 126.085L128.823 128.046ZM135.197 122.905C136.373 120.158 136.502 116.772 135.716 112.828L133.754 113.219C134.495 116.933 134.32 119.872 133.358 122.119L135.197 122.905ZM135.716 112.828L134.533 106.897L132.571 107.288L133.754 113.219L135.716 112.828ZM134.533 106.897C133.747 102.955 132.334 99.9016 130.197 97.8737L128.82 99.3244C130.548 100.964 131.83 103.572 132.571 107.288L134.533 106.897ZM130.221 97.897C128.089 95.7342 125.42 94.9686 122.348 95.5812L122.739 97.5426C125.191 97.0537 127.165 97.6462 128.797 99.301L130.221 97.897Z" fill="black" mask="url(#path-6-outside-1_37_5)"/>
<path d="M50.6658 99.5097L42.7397 78.904C42.6207 78.5948 42.4109 78.3289 42.1378 78.1413C41.8646 77.9537 41.5411 77.8533 41.2098 77.8533C40.8785 77.8533 40.555 77.9537 40.2819 78.1413C40.0088 78.3289 39.7989 78.5948 39.68 78.904L31.7538 99.5097C31.6715 99.7238 31.5452 99.9182 31.383 100.08C31.2208 100.243 31.0264 100.369 30.8123 100.451L10.2066 108.377C9.89735 108.496 9.63143 108.706 9.44387 108.979C9.25631 109.252 9.15591 109.576 9.15591 109.907C9.15591 110.239 9.25631 110.562 9.44387 110.835C9.63143 111.108 9.89735 111.318 10.2066 111.437L30.8123 119.363C31.0264 119.446 31.2208 119.572 31.383 119.734C31.5452 119.896 31.6715 120.091 31.7538 120.305L39.68 140.91C39.7989 141.22 40.0088 141.486 40.2819 141.673C40.555 141.861 40.8785 141.961 41.2098 141.961C41.5411 141.961 41.8646 141.861 42.1378 141.673C42.4109 141.486 42.6207 141.22 42.7397 140.91L50.6658 120.305C50.7481 120.091 50.8744 119.896 51.0366 119.734C51.1988 119.572 51.3933 119.446 51.6074 119.363L72.213 111.437C72.5223 111.318 72.7882 111.108 72.9757 110.835C73.1633 110.562 73.2637 110.239 73.2637 109.907C73.2637 109.576 73.1633 109.252 72.9757 108.979C72.7882 108.706 72.5223 108.496 72.213 108.377L51.6074 100.451C51.3933 100.369 51.1988 100.243 51.0366 100.08C50.8744 99.9182 50.7481 99.7238 50.6658 99.5097ZM22.9973 64.0116L19.3547 54.5411L15.7122 64.0116L6.2417 67.6541L15.7122 71.2966L19.3547 80.7671L22.9973 71.2966L32.4678 67.6541L22.9973 64.0116ZM81.0352 72.9959L76.1779 60.3691L71.3206 72.9959L58.6939 77.8531L71.3206 82.7104L76.1779 95.3372L81.0352 82.7104L93.662 77.8531L81.0352 72.9959Z" fill="white" stroke="black" stroke-width="2" stroke-linecap="round" stroke-linejoin="round"/>
</svg>
