<svg width="40" height="40" viewBox="0 0 40 40" fill="none" xmlns="http://www.w3.org/2000/svg">
<path d="M2.42712 33.9125V28.4844L20.1261 33.9125V39.2633L2.42712 33.9125Z" fill="white" stroke="#0D0D0D" stroke-width="0.4" stroke-linejoin="round"/>
<path d="M20.126 33.9125V39.2633L37.3105 33.9125V28.4844L20.126 33.9125Z" fill="#1FC87F" stroke="#0D0D0D" stroke-width="0.4" stroke-linejoin="round"/>
<path d="M2.42712 28.4852L20.1261 33.9132L37.3106 28.4852L20.1261 22.5684L2.42712 28.4852Z" fill="#1E8057" stroke="#0D0D0D" stroke-width="0.4" stroke-linejoin="round"/>
<path d="M6.89075 13.5645L32.0677 13.8232V27.3805L20.0405 30.7294L6.89075 27.3805V13.5645Z" fill="#0D0D0D"/>
<path d="M4.84534 15.1699H8.93625V28.7272L8.87976 28.7502C7.58531 29.2789 6.13365 29.2706 4.84534 28.7272V15.1699Z" fill="white"/>
<path d="M4.84534 15.1699H8.93625V28.7272L8.87976 28.7502C7.58531 29.2789 6.13365 29.2706 4.84534 28.7272V15.1699Z" stroke="#0D0D0D" stroke-width="0.4" stroke-linejoin="round"/>
<path d="M11.2091 17.1309H15.3V30.6881L15.2435 30.7112C13.9491 31.2399 12.4974 31.2316 11.2091 30.6881V17.1309Z" fill="white"/>
<path d="M11.2091 17.1309H15.3V30.6881L15.2435 30.7112C13.9491 31.2399 12.4974 31.2316 11.2091 30.6881V17.1309Z" stroke="#0D0D0D" stroke-width="0.4" stroke-linejoin="round"/>
<path d="M17.5724 18.9473H21.6633V32.5045L21.6068 32.5276C20.3124 33.0563 18.8607 33.048 17.5724 32.5045V18.9473Z" fill="white"/>
<path d="M17.5724 18.9473H21.6633V32.5045L21.6068 32.5276C20.3124 33.0563 18.8607 33.048 17.5724 32.5045V18.9473Z" stroke="#0D0D0D" stroke-width="0.4" stroke-linejoin="round"/>
<path d="M24.3907 17.1309H28.4817V30.6881L28.4252 30.7112C27.1307 31.2399 25.6791 31.2316 24.3907 30.6881V17.1309Z" fill="white"/>
<path d="M24.3907 17.1309H28.4817V30.6881L28.4252 30.7112C27.1307 31.2399 25.6791 31.2316 24.3907 30.6881V17.1309Z" stroke="#0D0D0D" stroke-width="0.4" stroke-linejoin="round"/>
<path d="M30.7545 14.7148H34.8454V28.2721L34.7889 28.2952C33.4945 28.8239 32.0428 28.8156 30.7545 28.2721V14.7148Z" fill="white"/>
<path d="M30.7545 14.7148H34.8454V28.2721L34.7889 28.2952C33.4945 28.8239 32.0428 28.8156 30.7545 28.2721V14.7148Z" stroke="#0D0D0D" stroke-width="0.4" stroke-linejoin="round"/>
<path d="M37.3106 14.6198L20.1261 19.8935L2.27271 14.6198V11.3012L11.3795 6.02753L28.7183 0.908203L37.3106 10.9668V14.6198Z" fill="white"/>
<path d="M20.1261 16.1376V19.8935M20.1261 16.1376L37.3106 10.9668M20.1261 16.1376L11.3795 6.02753M20.1261 19.8935L37.3106 14.6198V10.9668M20.1261 19.8935L2.27271 14.6198V11.3012L11.3795 6.02753M37.3106 10.9668L28.7183 0.908203L11.3795 6.02753" stroke="#0D0D0D" stroke-width="0.4" stroke-linejoin="round"/>
<path d="M20.1718 16.1376L37.3563 10.9668L28.764 0.908203L11.4252 6.02753L20.1718 16.1376Z" fill="#FFF066" stroke="#0D0D0D" stroke-width="0.4" stroke-linejoin="round"/>
</svg>
