<svg width="40" height="40" viewBox="0 0 40 40" fill="none" xmlns="http://www.w3.org/2000/svg">
<path d="M16.5356 32.4736L22.385 12.4907C29.8342 12.0961 36.6676 13.3617 37.9055 14.029L31.3205 37.0909C28.1179 35.1879 19.6105 32.1158 16.5356 32.4736Z" fill="#1FC87F" stroke="#0D0D0D" stroke-width="0.4" stroke-linecap="round" stroke-linejoin="round"/>
<path d="M16.5317 32.4771L22.8169 10.9536C30.2661 10.559 35.9121 11.8236 37.15 12.4909L30.565 35.5528C27.3625 33.6498 19.6066 32.1193 16.5317 32.4771Z" fill="#1FC87F" stroke="#0D0D0D" stroke-width="0.4" stroke-linejoin="round"/>
<path d="M16.5259 32.476L23.3135 9.21087C30.7627 8.81624 35.1007 10.0522 36.3386 10.7195L29.7536 33.7813C26.5511 31.8784 19.6007 32.1182 16.5259 32.476Z" fill="white" stroke="#0D0D0D" stroke-width="0.4" stroke-linejoin="round"/>
<path d="M21.9478 16.6904L24.416 9.18164H28.252L25.8587 16.4472L24.8025 13.7908L21.9478 16.6904Z" fill="#FFF066" stroke="#0D0D0D" stroke-width="0.4" stroke-linecap="round" stroke-linejoin="round"/>
<path d="M16.5186 32.4939L20.3828 11.0034C17.4587 8.38097 11.7058 5.94376 9.17239 5.00586C6.36435 12.5017 3.28361 23.5424 2.09424 28.1258C6.94449 29.611 14.7105 31.1014 16.5186 32.4939Z" fill="#1FC87F" stroke="#0D0D0D" stroke-width="0.4" stroke-linecap="round" stroke-linejoin="round"/>
<path d="M16.5038 32.4502L21.6846 10.0425C18.7605 7.42003 13.0075 4.98282 10.4741 4.04492C7.66611 11.5408 4.58536 22.5815 3.396 27.1648C8.24624 28.6501 14.6956 31.0578 16.5038 32.4502Z" fill="#1FC87F" stroke="#0D0D0D" stroke-width="0.4" stroke-linejoin="round"/>
<path d="M16.5205 32.4585L23.3096 9.20068C20.3855 6.57823 14.6325 4.14103 12.0991 3.20312C9.29111 10.699 6.21036 21.7397 5.021 26.323C9.87124 27.8083 14.7124 31.0661 16.5205 32.4585Z" fill="white" stroke="#0D0D0D" stroke-width="0.4" stroke-linejoin="round"/>
<path d="M20.3467 24.6057C22.7614 24.1153 26.978 23.8382 30.647 25.9075" stroke="#0D0D0D" stroke-width="0.4" stroke-linecap="round" stroke-linejoin="round"/>
<path d="M19.6504 26.3003C22.0651 25.8099 26.3457 25.7939 29.9507 27.6021" stroke="#0D0D0D" stroke-width="0.4" stroke-linecap="round" stroke-linejoin="round"/>
<path d="M19.0703 27.9951C21.485 27.5046 26.1759 27.4913 29.3706 29.2968" stroke="#0D0D0D" stroke-width="0.4" stroke-linecap="round" stroke-linejoin="round"/>
</svg>
