<svg width="42" height="40" viewBox="0 0 42 40" fill="none" xmlns="http://www.w3.org/2000/svg">
<path d="M22.0078 6.18347C25.984 2.6278 32.0897 2.96868 35.6454 6.94485L38.5832 10.2301C41.9915 14.0414 41.6647 19.8941 37.8534 23.3023L19.6109 39.6156L10.235 29.1309C6.8267 25.3196 7.15346 19.4669 10.9648 16.0586L22.0078 6.18347Z" fill="#1E8057" stroke="#0D0D0D" stroke-width="0.4"/>
<path d="M36.8897 23.9595L19.6023 39.6159L2.82176 21.0874C0.297759 18.3005 0.510896 13.9951 3.29782 11.4711L15.539 0.384766L36.8897 23.9595Z" fill="#1FC87F" stroke="#0D0D0D" stroke-width="0.4"/>
<path d="M21.5531 5.36385C25.4451 1.88343 31.4217 2.2171 34.9021 6.10911C38.2382 9.8398 37.9184 15.5686 34.1877 18.9047L15.7992 35.3486L9.62793 28.4476C6.21965 24.6362 6.5464 18.7835 10.3577 15.3753L21.5531 5.36385Z" fill="white" stroke="#0D0D0D" stroke-width="0.4"/>
<path d="M16.33 18.1979L24.0603 11.707L23.4396 17.8866L28.0666 18.1979L20.2233 23.7267L20.7594 18.1979H16.33Z" fill="#FFF066"/>
<path d="M16.33 18.1979L24.0603 11.707L23.4396 17.8866L28.0666 18.1979L20.2233 23.7267L20.7594 18.1979H16.33Z" stroke="#0D0D0D" stroke-width="0.4" stroke-linejoin="round"/>
</svg>
