<svg width="40" height="40" viewBox="0 0 40 40" fill="none" xmlns="http://www.w3.org/2000/svg">
<ellipse cx="17.6695" cy="18.2302" rx="17.6695" ry="18.2302" transform="matrix(-1 0 0 1 39.3833 2.16992)" fill="#1FC87F" stroke="#0D0D0D" stroke-width="0.4" stroke-linejoin="round"/>
<path fill-rule="evenodd" clip-rule="evenodd" d="M13.8145 36.8012C16.1482 37.9736 18.7696 38.6313 21.5398 38.6313C28.0514 38.6313 33.7403 34.9972 36.8052 29.5877L16.7147 24.752L13.8145 36.8012Z" fill="#1E8057"/>
<path d="M13.8145 36.8012L13.7247 36.9799C13.6417 36.9382 13.5983 36.8448 13.6201 36.7544L13.8145 36.8012ZM36.8052 29.5877L36.852 29.3932C36.913 29.4079 36.9636 29.4504 36.9886 29.508C37.0136 29.5656 37.0101 29.6316 36.9792 29.6862L36.8052 29.5877ZM16.7147 24.752L16.5203 24.7052C16.5327 24.6536 16.5651 24.6091 16.6103 24.5814C16.6556 24.5537 16.7099 24.5451 16.7615 24.5575L16.7147 24.752ZM13.9043 36.6225C16.2109 37.7813 18.8016 38.4313 21.5398 38.4313V38.8313C18.7375 38.8313 16.0855 38.1659 13.7247 36.9799L13.9043 36.6225ZM21.5398 38.4313C27.9743 38.4313 33.5993 34.8405 36.6312 29.4891L36.9792 29.6862C33.8813 35.154 28.1284 38.8313 21.5398 38.8313V38.4313ZM16.7615 24.5575L36.852 29.3932L36.7584 29.7821L16.6679 24.9464L16.7615 24.5575ZM13.6201 36.7544L16.5203 24.7052L16.9092 24.7988L14.0089 36.848L13.6201 36.7544Z" fill="#0D0D0D"/>
<ellipse cx="17.2005" cy="18.2302" rx="17.2005" ry="18.2302" transform="matrix(-1 0 0 1 35.0176 1.36914)" fill="white" stroke="#0D0D0D" stroke-width="0.4" stroke-linejoin="round"/>
<path d="M34.7813 22.6105C35.4949 18.0949 34.5791 13.4601 32.2161 9.62729C29.8531 5.7945 26.2158 3.04443 22.0274 1.92372L17.8171 19.5994L34.7813 22.6105Z" fill="#FFF066" stroke="#0D0D0D" stroke-width="0.4" stroke-linejoin="round"/>
<ellipse cx="11.9065" cy="12.7793" rx="11.9065" ry="12.7793" transform="matrix(-1 0 0 1 29.5686 6.81836)" fill="white" stroke="#0D0D0D" stroke-width="0.4" stroke-linejoin="round"/>
<ellipse cx="2.03076" cy="2.17961" rx="2.03076" ry="2.17961" transform="matrix(-1 0 0 1 19.6927 17.4199)" fill="#FFF066" stroke="#0D0D0D" stroke-width="0.4" stroke-linejoin="round"/>
<line x1="19.4772" y1="18.2204" x2="25.6149" y2="13.5859" stroke="#0D0D0D" stroke-width="0.6" stroke-linecap="round"/>
</svg>
