<svg width="40" height="40" viewBox="0 0 40 40" fill="none" xmlns="http://www.w3.org/2000/svg">
<path d="M37.7066 7.94638L36.5973 5.98541C36.3124 5.54594 35.8875 5.22172 35.3955 5.06818L32.0984 4.06661L25.8225 2.14781L22.5252 1.09353C22.2535 1.00955 21.9682 0.98173 21.6859 1.01166C21.4036 1.0416 21.1299 1.12869 20.8806 1.26791C20.6313 1.40714 20.4113 1.59573 20.2335 1.82277C20.0556 2.04981 19.9233 2.31079 19.8444 2.59061L11.7813 30.371C11.6317 30.8878 11.6719 31.4429 11.8942 31.9314L12.9831 33.8712C13.1203 34.126 13.3052 34.3503 13.5274 34.5313C13.7495 34.7123 14.0044 34.8462 14.2773 34.9255L27.1885 38.9107C27.7361 39.0749 28.3246 39.0109 28.8264 38.7326C29.3283 38.4544 29.703 37.9842 29.8694 37.4242L37.8915 9.70704C37.9869 9.41736 38.0197 9.10984 37.9878 8.80582C37.9559 8.5018 37.8599 8.20854 37.7066 7.94638Z" fill="#3351FF" stroke="#0D0D0D" stroke-width="0.42" stroke-linecap="round" stroke-linejoin="round"/>
<path d="M36.5977 5.98541C36.3194 5.54618 35.8965 5.22436 35.4062 5.07873L32.0988 4.02444L25.8229 2.0951L22.5256 1.09353C22.2539 1.00955 21.9686 0.98173 21.6863 1.01166C21.404 1.0416 21.1303 1.12869 20.881 1.26791C20.6317 1.40714 20.4117 1.59573 20.2339 1.82277C20.056 2.04981 19.9237 2.31079 19.8448 2.59061L18.7458 6.36495L12.4494 28.0938L11.8022 30.3183C11.7174 30.5965 11.6877 30.8894 11.7149 31.1795C11.742 31.4697 11.8256 31.7514 11.9606 32.0079C12.0956 32.2644 12.2792 32.4905 12.5008 32.6729C12.7223 32.8554 12.9773 32.9904 13.2506 33.07L26.1207 37.013C26.6696 37.1804 27.2607 37.118 27.765 36.8395C28.2692 36.5609 28.6455 36.0889 28.8118 35.5265L36.8442 7.77769C36.9304 7.47824 36.9531 7.16328 36.9105 6.85408C36.868 6.54489 36.7613 6.24866 36.5977 5.98541Z" fill="white" stroke="#0D0D0D" stroke-width="0.42" stroke-linecap="round" stroke-linejoin="round"/>
<path d="M36.5979 8.66324L19.6191 3.45508" stroke="#0D0D0D" stroke-width="0.42" stroke-linecap="round" stroke-linejoin="round"/>
<path d="M29.5003 4.90016L27.3125 4.22461" stroke="#0D0D0D" stroke-width="0.42" stroke-linecap="round" stroke-linejoin="round"/>
<path d="M29.4696 33.3336L12.46 28.1465" stroke="#0D0D0D" stroke-width="0.42" stroke-linecap="round" stroke-linejoin="round"/>
<path d="M25.2783 20.2498C24.554 23.0178 22.813 25.39 20.4208 26.8683C18.0286 28.3466 15.1714 28.8161 12.4492 28.178L18.7457 6.44922C21.3623 7.4355 23.5046 9.42422 24.7227 11.9976C25.9409 14.571 26.1401 17.5289 25.2783 20.2498Z" fill="#0D0D0D" stroke="#0D0D0D" stroke-width="0.42" stroke-linecap="round" stroke-linejoin="round"/>
<path d="M17.5234 5.27863C15.4736 4.53016 13.2523 4.42978 11.1463 4.99048C9.0404 5.55118 7.14664 6.74719 5.70977 8.42398C4.27291 10.1008 3.35897 12.1813 3.08597 14.3967C2.81298 16.6122 3.19356 18.8608 4.17845 20.8519C5.16334 22.8431 6.70732 24.4854 8.61093 25.5666C10.5145 26.6478 12.6903 27.1183 14.8571 26.9172C17.0239 26.7161 19.0822 25.8527 20.766 24.4386C22.4498 23.0245 23.6816 21.1245 24.3026 18.9843C25.1741 16.2441 24.9496 13.2608 23.6783 10.6905C22.407 8.12027 20.193 6.17359 17.5234 5.27863Z" fill="white" stroke="#0D0D0D" stroke-width="0.41" stroke-linecap="round" stroke-linejoin="round"/>
<path d="M18.2122 15.9174L15.0587 14.9475L17.7807 10.3613L10.6523 16.0334L13.8159 17.0033L11.0939 21.5895L18.2122 15.9174Z" fill="#FBBF24" stroke="#0D0D0D" stroke-width="0.41" stroke-linecap="round" stroke-linejoin="round"/>
<path d="M37.7066 7.94638L36.5973 5.98541C36.3124 5.54594 35.8875 5.22172 35.3955 5.06818L32.0984 4.06661L25.8225 2.14781L22.5252 1.09353C22.2535 1.00955 21.9682 0.98173 21.6859 1.01166C21.4036 1.0416 21.1299 1.12869 20.8806 1.26791C20.6313 1.40714 20.4113 1.59573 20.2335 1.82277C20.0556 2.04981 19.9233 2.31079 19.8444 2.59061L11.7813 30.371C11.6317 30.8878 11.6719 31.4429 11.8942 31.9314L12.9831 33.8712C13.1203 34.126 13.3052 34.3503 13.5274 34.5313C13.7495 34.7123 14.0044 34.8462 14.2773 34.9255L27.1885 38.9107C27.7361 39.0749 28.3246 39.0109 28.8264 38.7326C29.3283 38.4544 29.703 37.9842 29.8694 37.4242L37.8915 9.70704C37.9869 9.41736 38.0197 9.10984 37.9878 8.80582C37.9559 8.5018 37.8599 8.20854 37.7066 7.94638Z" fill="#3351FF" stroke="#0D0D0D" stroke-width="0.42" stroke-linecap="round" stroke-linejoin="round"/>
<path d="M36.5977 5.98541C36.3194 5.54618 35.8965 5.22436 35.4062 5.07873L32.0988 4.02444L25.8229 2.0951L22.5256 1.09353C22.2539 1.00955 21.9686 0.98173 21.6863 1.01166C21.404 1.0416 21.1303 1.12869 20.881 1.26791C20.6317 1.40714 20.4117 1.59573 20.2339 1.82277C20.056 2.04981 19.9237 2.31079 19.8448 2.59061L18.7458 6.36495L12.4494 28.0938L11.8022 30.3183C11.7174 30.5965 11.6877 30.8894 11.7149 31.1795C11.742 31.4697 11.8256 31.7514 11.9606 32.0079C12.0956 32.2644 12.2792 32.4905 12.5008 32.6729C12.7223 32.8554 12.9773 32.9904 13.2506 33.07L26.1207 37.013C26.6696 37.1804 27.2607 37.118 27.765 36.8395C28.2692 36.5609 28.6455 36.0889 28.8118 35.5265L36.8442 7.77769C36.9304 7.47824 36.9531 7.16328 36.9105 6.85408C36.868 6.54489 36.7613 6.24866 36.5977 5.98541Z" fill="white" stroke="#0D0D0D" stroke-width="0.42" stroke-linecap="round" stroke-linejoin="round"/>
<path d="M36.5979 8.66324L19.6191 3.45508" stroke="#0D0D0D" stroke-width="0.42" stroke-linecap="round" stroke-linejoin="round"/>
<path d="M29.5003 4.90016L27.3125 4.22461" stroke="#0D0D0D" stroke-width="0.42" stroke-linecap="round" stroke-linejoin="round"/>
<path d="M29.4696 33.3336L12.46 28.1465" stroke="#0D0D0D" stroke-width="0.42" stroke-linecap="round" stroke-linejoin="round"/>
<path d="M25.2783 20.2498C24.554 23.0178 22.813 25.39 20.4208 26.8683C18.0286 28.3466 15.1714 28.8161 12.4492 28.178L18.7457 6.44922C21.3623 7.4355 23.5046 9.42422 24.7227 11.9976C25.9409 14.571 26.1401 17.5289 25.2783 20.2498Z" fill="#0D0D0D" stroke="#0D0D0D" stroke-width="0.42" stroke-linecap="round" stroke-linejoin="round"/>
<path d="M17.5234 5.27863C15.4736 4.53016 13.2523 4.42978 11.1463 4.99048C9.0404 5.55118 7.14664 6.74719 5.70977 8.42398C4.27291 10.1008 3.35897 12.1813 3.08597 14.3967C2.81298 16.6122 3.19356 18.8608 4.17845 20.8519C5.16334 22.8431 6.70732 24.4854 8.61093 25.5666C10.5145 26.6478 12.6903 27.1183 14.8571 26.9172C17.0239 26.7161 19.0822 25.8527 20.766 24.4386C22.4498 23.0245 23.6816 21.1245 24.3026 18.9843C25.1741 16.2441 24.9496 13.2608 23.6783 10.6905C22.407 8.12027 20.193 6.17359 17.5234 5.27863Z" fill="white" stroke="#0D0D0D" stroke-width="0.41" stroke-linecap="round" stroke-linejoin="round"/>
<path d="M18.2122 15.9174L15.0587 14.9475L17.7807 10.3613L10.6523 16.0334L13.8159 17.0033L11.0939 21.5895L18.2122 15.9174Z" fill="#FBBF24" stroke="#0D0D0D" stroke-width="0.41" stroke-linecap="round" stroke-linejoin="round"/>
<path d="M36.5706 8.74023L19.5943 3.43107L19.871 2.54637C20.2337 1.38673 21.4678 0.740659 22.6274 1.10333L35.4042 5.09916C36.5638 5.46182 37.2099 6.6959 36.8472 7.85554L36.5706 8.74023Z" fill="#144CC7" stroke="#0D0D0D" stroke-width="0.42" stroke-linejoin="round"/>
<path d="M36.5706 8.74023L19.5943 3.43107L19.871 2.54637C20.2337 1.38673 21.4678 0.740659 22.6274 1.10333L35.4042 5.09916C36.5638 5.46182 37.2099 6.6959 36.8472 7.85554L36.5706 8.74023Z" fill="#144CC7" stroke="#0D0D0D" stroke-width="0.42" stroke-linejoin="round"/>
<path d="M12.4805 28.041L29.45 33.3337L28.778 35.4881C28.4163 36.648 27.1827 37.295 26.0228 36.9333L13.2537 32.9507C12.0938 32.5889 11.4468 31.3553 11.8085 30.1954L12.4805 28.041Z" fill="#144CC7" stroke="#0D0D0D" stroke-width="0.42" stroke-linejoin="round"/>
<path d="M12.4805 28.041L29.45 33.3337L28.778 35.4881C28.4163 36.648 27.1827 37.295 26.0228 36.9333L13.2537 32.9507C12.0938 32.5889 11.4468 31.3553 11.8085 30.1954L12.4805 28.041Z" fill="#144CC7" stroke="#0D0D0D" stroke-width="0.42" stroke-linejoin="round"/>
</svg>
