<svg width="40" height="40" viewBox="0 0 40 40" fill="none" xmlns="http://www.w3.org/2000/svg">
<path d="M20 11.4336L36 16.3465L20 21.2171L4 16.3465L20 11.4336Z" fill="white" stroke="#0D0D0D" stroke-width="0.4" stroke-linecap="round" stroke-linejoin="round"/>
<path d="M36 16.3477V33.1829L20 38.0006V21.2182L36 16.3477Z" fill="#144CC7" stroke="#0D0D0D" stroke-width="0.4" stroke-linecap="round" stroke-linejoin="round"/>
<path d="M13 6V16.3659C13 16.6835 13.8427 16.9376 14.8773 16.9376C15.912 16.9376 16.744 16.6835 16.744 16.3659V6H13Z" fill="white" stroke="#0D0D0D" stroke-width="0.4" stroke-linecap="round" stroke-linejoin="round"/>
<path d="M16.4803 6.19286C16.4803 6.51051 15.6483 6.76462 14.6137 6.76462C13.579 6.76462 12.7363 6.51051 12.7363 6.19286C12.7363 5.87521 13.579 5.62109 14.6137 5.62109C15.6483 5.62109 16.4803 5.87521 16.4803 6.19286Z" fill="white" stroke="#0D0D0D" stroke-width="0.4" stroke-linecap="round" stroke-linejoin="round"/>
<path d="M23.5312 6.19336V16.5592C23.5312 16.8769 24.3633 17.131 25.3979 17.131C26.4326 17.131 27.2753 16.8769 27.2753 16.5592V6.19336H23.5312Z" fill="white" stroke="#0D0D0D" stroke-width="0.4" stroke-linecap="round" stroke-linejoin="round"/>
<path d="M27.2753 6.19286C27.2753 6.51051 26.4326 6.76462 25.3979 6.76462C24.3633 6.76462 23.5312 6.51051 23.5312 6.19286C23.5312 5.87521 24.3633 5.62109 25.3979 5.62109C26.4326 5.62109 27.2753 5.87521 27.2753 6.19286Z" fill="white" stroke="#0D0D0D" stroke-width="0.4" stroke-linecap="round" stroke-linejoin="round"/>
<path d="M12.7363 2.57227V7.77108C12.7363 8.08872 13.579 8.35343 14.6137 8.35343C15.6483 8.35343 16.4803 8.08872 16.4803 7.77108V2.57227H12.7363Z" fill="#FBBF24" stroke="#0D0D0D" stroke-width="0.4" stroke-linecap="round" stroke-linejoin="round"/>
<path d="M16.4803 2.57176C16.4803 2.88941 15.6483 3.14352 14.6137 3.14352C13.579 3.14352 12.7363 2.88941 12.7363 2.57176C12.7363 2.25412 13.579 2 14.6137 2C15.6483 2 16.4803 2.25412 16.4803 2.57176Z" fill="#FBBF24" stroke="#0D0D0D" stroke-width="0.4" stroke-linecap="round" stroke-linejoin="round"/>
<path d="M23.5312 2.71875V7.91756C23.5312 8.23521 24.3633 8.49992 25.3979 8.49992C26.4326 8.49992 27.2753 8.23521 27.2753 7.91756V2.71875H23.5312Z" fill="#FBBF24" stroke="#0D0D0D" stroke-width="0.4" stroke-linecap="round" stroke-linejoin="round"/>
<path d="M27.2753 2.57176C27.2753 2.88941 26.4326 3.14352 25.3979 3.14352C24.3633 3.14352 23.5312 2.88941 23.5312 2.57176C23.5312 2.25412 24.3633 2 25.3979 2C26.4326 2 27.2753 2.25412 27.2753 2.57176Z" fill="#FBBF24" stroke="#0D0D0D" stroke-width="0.4" stroke-linecap="round" stroke-linejoin="round"/>
<path d="M20 21.2182V38.0006L4 33.1088V16.3477L20 21.2182Z" fill="white" stroke="#0D0D0D" stroke-width="0.4" stroke-linecap="round" stroke-linejoin="round"/>
<path d="M14.9872 27.1581L12.2672 26.3322L13.3445 22.584L9.03516 27.1369L11.7338 27.9628L10.6565 31.764L14.9872 27.1581Z" fill="#FBBF24" stroke="#0D0D0D" stroke-width="0.4" stroke-linecap="round" stroke-linejoin="round"/>
</svg>
