<svg width="40" height="40" viewBox="0 0 40 40" fill="none" xmlns="http://www.w3.org/2000/svg">
<path d="M27.9743 35.5451L0.821411 28.2676L2.8291 31.7307L29.9947 39.1391L27.9743 35.5451Z" fill="#1E8057" stroke="#0D0D0D" stroke-width="0.4" stroke-linejoin="round"/>
<path d="M37.1089 8.39258L27.9743 35.5453L29.9947 39.1393L39.1787 11.2788L37.1089 8.39258Z" fill="#1FC87F" stroke="#0D0D0D" stroke-width="0.4" stroke-linejoin="round"/>
<path d="M0.821411 28.267L9.95604 0.863281L37.1088 8.39176L27.9743 35.5445L0.821411 28.267Z" fill="white" stroke="#0D0D0D" stroke-width="0.4" stroke-linejoin="round"/>
<path d="M12.4501 31.3188L21.3124 4.00391L25.3868 5.15108L16.5147 32.425L12.4501 31.3188Z" fill="#1FC87F" stroke="#0D0D0D" stroke-width="0.4" stroke-linejoin="round"/>
<path d="M14.082 34.75L12.4501 31.3184L16.5147 32.4246L18.5325 36.0105L14.082 34.75Z" stroke="#0D0D0D" stroke-width="0.4" stroke-linejoin="round"/>
<path d="M18.6752 26.4079C18.9428 25.6053 18.7867 20.654 18.6752 18.2786L20.0386 17.4297C22.0452 17.5583 23.0485 26.768 22.1738 26.4079C21.4741 26.1198 19.6528 26.2878 18.6752 26.4079Z" fill="#FFF066" stroke="#0D0D0D" stroke-width="0.4" stroke-linejoin="round"/>
<path d="M14.3372 24.7454C15.0098 24.5611 17.7304 20.2141 18.6754 19.1945L17.2234 17.8457C14.0483 19.639 11.4962 22.632 11.2764 23.3704C12.2873 24.5219 13.6645 24.9298 14.3372 24.7454Z" fill="#FFF066" stroke="#0D0D0D" stroke-width="0.4" stroke-linejoin="round"/>
<path d="M30.4834 18.1287C31.981 15.662 25.3974 15.9371 22.2019 16.5227L20.0333 17.6373L20.9299 19.681C29.2229 29.1315 27.9109 22.3658 30.4834 18.1287Z" fill="#FFF066" stroke="#0D0D0D" stroke-width="0.4" stroke-linejoin="round"/>
<path d="M20.8958 19.3867C24.3066 20.1163 29.0938 22.3064 27.7556 24.0568C26.4174 25.8072 22.1866 21.4007 20.8958 19.3867Z" fill="#8A8A8A" stroke="#0D0D0D" stroke-width="0.4" stroke-linejoin="round"/>
<path d="M10.5265 10.9788C10.8218 11 15.9282 14.1434 18.0028 15.5147C19.8356 15.9015 18.135 18.057 17.805 18.2442C15.5372 19.5304 8.11349 20.0111 7.94204 18.6397C7.33549 12.482 10.1572 10.9524 10.5265 10.9788Z" fill="#FFF066" stroke="#0D0D0D" stroke-width="0.4" stroke-linejoin="round"/>
<path d="M16.4285 18.7598C14.3952 19.4137 7.25035 20.3197 7.94774 18.0086C8.26526 15.4867 14.3126 17.6559 16.4285 18.7598Z" fill="#8A8A8A" stroke="#0D0D0D" stroke-width="0.4" stroke-linejoin="round"/>
<path d="M16.2664 17.6668L16.6788 16.1767C16.8503 15.5568 17.3224 15.0621 17.9649 15.0917C19.5645 15.1656 22.0094 15.9283 21.9685 16.3985C21.9355 16.7789 21.385 18.0877 20.9342 19.1388C20.7391 19.594 20.3858 19.978 19.912 20.1224C17.7618 20.7778 16.6058 19.4989 16.2548 18.4763C16.1651 18.2149 16.1927 17.9331 16.2664 17.6668Z" fill="#FFF066" stroke="#0D0D0D" stroke-width="0.4" stroke-linejoin="round"/>
</svg>
