<svg width="40" height="40" viewBox="0 0 40 40" fill="none" xmlns="http://www.w3.org/2000/svg">
<path d="M13.9806 5.81641L7.26587 8.16948L13.9806 13.3927V5.81641Z" fill="#1FC87F" stroke="#0D0D0D" stroke-width="0.4" stroke-linecap="round" stroke-linejoin="round"/>
<path d="M13.9792 13.5089V5.81836L32.8091 11.7008L26.1331 18.0843L13.9792 13.5089Z" fill="white" stroke="#0D0D0D" stroke-width="0.4" stroke-linecap="round" stroke-linejoin="round"/>
<path d="M25.7351 14.0402L7.26515 8.16797L2.39679 31.5063L28.1442 39.4865L25.7351 14.0402Z" fill="white" stroke="#0D0D0D" stroke-width="0.4" stroke-linecap="round" stroke-linejoin="round"/>
<path d="M28.1447 39.4857L25.7371 14.0418L32.8063 11.6973L37.6016 36.3837L28.1447 39.4857Z" fill="#1FC87F" stroke="#0D0D0D" stroke-width="0.4" stroke-linecap="round" stroke-linejoin="round"/>
<path d="M32.5193 34.4375L28.1448 39.4877L37.6032 36.3822L32.5193 34.4375Z" fill="#1E8057" stroke="#0D0D0D" stroke-width="0.4" stroke-linecap="round" stroke-linejoin="round"/>
<path fill-rule="evenodd" clip-rule="evenodd" d="M11.5621 18.9876C12.5134 18.0196 14 18.1206 14.8825 19.2132L15.8651 20.4298L16.3119 19.9336C17.2248 18.92 18.7124 18.9498 19.6346 20.0002C20.5567 21.0506 20.5643 22.7238 19.6514 23.7375L15.755 28.0641L11.4375 22.7187C10.555 21.6261 10.6108 19.9556 11.5621 18.9876Z" fill="#FFF066" stroke="#0D0D0D" stroke-width="0.4" stroke-linecap="round" stroke-linejoin="round"/>
<path d="M19.9379 11.6347V3.35115C19.9383 -0.224578 26.6546 -0.969275 28.1443 4.32875V10.0141" stroke="#0D0D0D" stroke-width="0.4" stroke-linecap="round" stroke-linejoin="round"/>
<path d="M11.7314 9.38605V5.70271C11.7318 2.12698 18.4481 1.38229 19.9378 6.68031V12.0816" stroke="#0D0D0D" stroke-width="0.4" stroke-linecap="round" stroke-linejoin="round"/>
</svg>
