<svg width="38" height="32" viewBox="0 0 38 32" fill="none" xmlns="http://www.w3.org/2000/svg">
<path d="M0.0874023 7.12989C0.0874023 3.26389 3.22141 0.129883 7.0874 0.129883L30.133 0.129883C33.999 0.129883 37.133 3.26389 37.133 7.12988V24.1945C37.133 28.0605 33.999 31.1945 30.133 31.1945H7.0874C3.2214 31.1945 0.0874023 28.0605 0.0874023 24.1945L0.0874023 7.12989Z" fill="#D3B200"/>
<path d="M14.3415 0.343415L14.3415 11.7849M14.2831 20.2849L14.2831 31.1676" stroke="#635400"/>
<path d="M23.2169 0.784885L23.2169 11.9728M23.4107 20.0247L23.4105 31.1533" stroke="#635400"/>
<path d="M0.693286 11.6694L13.7713 11.7684C14.9639 12.419 17.415 13.7133 19.5592 13.4886C21.7694 13.257 21.171 13.6871 23.5646 11.9667L36.6426 12.0657" stroke="#635400"/>
<path d="M0.406671 20.0116L13.487 20.1499C14.7024 20.7905 16.2918 21.9123 18.4611 21.6693C20.6971 21.4188 21.0042 22.006 23.4086 20.265L36.9754 20.362" stroke="#635400"/>
</svg>
