<svg width="267" height="75" viewBox="0 0 267 75" fill="none" xmlns="http://www.w3.org/2000/svg">
<path d="M12.5001 18C11.1194 18 10.0001 19.1193 10.0001 20.5V53.3314C10.0001 54.4628 9.24028 55.4532 8.14746 55.7462L36.1472 48.24C37.2401 47.9472 38.0001 46.9567 38.0001 45.8252V20.5C38.0001 19.1193 36.8808 18 35.5001 18H12.5001Z" fill="#0048E5"/>
<path d="M1.25338 41.5476C0.0575757 42.238 -0.352092 43.7668 0.338338 44.9626L5.81522 54.449C6.38097 55.4289 7.53438 55.9067 8.62734 55.6138L34.7744 48.6076L24.5869 30.9626C23.8969 29.7668 22.3676 29.3571 21.1718 30.0476L1.25338 41.5476Z" fill="url(#paint0_linear_103_19)"/>
<path d="M8.40173 55.6633C8.4771 55.6504 8.55237 55.6339 8.62737 55.6138L34.7744 48.6076L24.5869 30.9626C23.897 29.7668 22.3677 29.3571 21.1719 30.0476L10.0002 36.4976V53.3314C10.0002 54.3728 9.35638 55.2947 8.40173 55.6633Z" fill="url(#paint1_linear_103_19)"/>
<path d="M53.9322 19.496C56.5242 19.496 58.7162 19.736 60.5082 20.216C62.3002 20.696 63.7242 21.624 64.7802 23C65.8682 24.344 66.4122 26.28 66.4122 28.808C66.4122 29.928 66.2362 31.08 65.8842 32.264C65.5642 33.416 65.1482 34.424 64.6362 35.288C64.1562 36.152 63.7242 36.712 63.3402 36.968C62.8922 37.288 61.9002 37.544 60.3642 37.736C58.8282 37.896 57.0202 37.976 54.9402 37.976C54.2042 37.976 53.0682 37.944 51.5322 37.88V47H42.8922V19.64C46.2522 19.544 49.9322 19.496 53.9322 19.496ZM57.5322 31.832C57.8522 31.416 58.0122 30.584 58.0122 29.336C58.0122 27.704 57.6602 26.552 56.9562 25.88C56.2842 25.208 55.1002 24.872 53.4042 24.872C52.8282 24.872 52.2042 24.92 51.5322 25.016V32.312C51.8522 32.344 52.4762 32.36 53.4042 32.36C55.8682 32.36 57.2442 32.184 57.5322 31.832ZM82.1903 47L81.4223 43.976C79.9503 46.376 77.9023 47.576 75.2783 47.576C73.1343 47.576 71.3743 46.984 69.9983 45.8C68.6543 44.584 67.9823 42.888 67.9823 40.712C67.9823 39.368 68.3663 38.2 69.1343 37.208C69.9343 36.184 71.0223 35.464 72.3983 35.048C74.1903 34.536 76.9583 34.248 80.7023 34.184C80.7023 32.072 80.6063 30.952 80.4143 30.824C80.2543 30.696 79.7423 30.632 78.8783 30.632C78.3343 30.632 77.5823 30.664 76.6223 30.728C75.0863 30.792 73.0063 30.968 70.3823 31.256C70.1263 29.528 69.9343 27.672 69.8063 25.688C71.5023 25.336 73.2783 25.048 75.1343 24.824C76.9903 24.568 78.6543 24.44 80.1263 24.44C82.6863 24.44 84.6063 24.872 85.8863 25.736C87.1663 26.568 87.9983 27.672 88.3823 29.048C88.7663 30.424 88.9423 32.168 88.9103 34.28L88.8623 41.336L89.0063 47H82.1903ZM78.0623 42.2C78.8943 42.2 79.7743 42.04 80.7023 41.72V38.168H80.3183C77.9503 38.168 76.6383 38.296 76.3823 38.552C76.2223 38.712 76.0943 38.952 75.9983 39.272C75.9343 39.592 75.9023 39.896 75.9023 40.184C75.9023 40.952 76.0783 41.48 76.4303 41.768C76.7823 42.056 77.3263 42.2 78.0623 42.2ZM106.296 24.44C106.712 24.44 107.144 24.488 107.592 24.584C108.072 24.68 108.424 24.792 108.648 24.92C108.648 25.624 108.568 26.792 108.408 28.424C108.248 30.024 108.104 31.16 107.976 31.832C107.656 31.8 107.064 31.784 106.2 31.784C104.184 31.784 102.392 31.896 100.824 32.12V47H92.6164V24.92H99.4804L100.44 28.472H100.488C101.416 27.256 102.408 26.28 103.464 25.544C104.52 24.808 105.464 24.44 106.296 24.44ZM110.948 18.2L119.156 17.864V47H110.948V18.2ZM127.498 22.184C126.41 22.184 125.466 21.816 124.666 21.08C123.898 20.344 123.514 19.464 123.514 18.44C123.514 17.416 123.898 16.536 124.666 15.8C125.466 15.064 126.41 14.696 127.498 14.696C128.586 14.696 129.514 15.064 130.282 15.8C131.05 16.536 131.434 17.416 131.434 18.44C131.434 19.464 131.05 20.344 130.282 21.08C129.514 21.816 128.586 22.184 127.498 22.184ZM123.37 24.92H131.578V47H123.37V24.92ZM148.8 47L148.032 43.976C146.56 46.376 144.512 47.576 141.888 47.576C139.744 47.576 137.984 46.984 136.608 45.8C135.264 44.584 134.592 42.888 134.592 40.712C134.592 39.368 134.976 38.2 135.744 37.208C136.544 36.184 137.632 35.464 139.008 35.048C140.8 34.536 143.568 34.248 147.312 34.184C147.312 32.072 147.216 30.952 147.024 30.824C146.864 30.696 146.352 30.632 145.488 30.632C144.944 30.632 144.192 30.664 143.232 30.728C141.696 30.792 139.616 30.968 136.992 31.256C136.736 29.528 136.544 27.672 136.416 25.688C138.112 25.336 139.888 25.048 141.744 24.824C143.6 24.568 145.264 24.44 146.736 24.44C149.296 24.44 151.216 24.872 152.496 25.736C153.776 26.568 154.608 27.672 154.992 29.048C155.376 30.424 155.552 32.168 155.52 34.28L155.472 41.336L155.616 47H148.8ZM144.672 42.2C145.504 42.2 146.384 42.04 147.312 41.72V38.168H146.928C144.56 38.168 143.248 38.296 142.992 38.552C142.832 38.712 142.704 38.952 142.608 39.272C142.544 39.592 142.512 39.896 142.512 40.184C142.512 40.952 142.688 41.48 143.04 41.768C143.392 42.056 143.936 42.2 144.672 42.2ZM193.738 26.456C194.25 27.224 194.506 30.2 194.506 35.384V47H186.298V36.2V33.608C186.298 32.424 186.186 31.72 185.962 31.496C185.706 31.24 185.162 31.112 184.33 31.112L183.754 31.16C182.762 31.224 181.818 31.448 180.922 31.832C180.954 32.504 180.97 33.688 180.97 35.384V47H172.762V36.2V33.32C172.762 32.328 172.65 31.72 172.426 31.496C172.17 31.24 171.626 31.112 170.794 31.112L170.218 31.16C169.322 31.192 168.394 31.4 167.434 31.784V47H159.226V24.92H165.898L166.762 28.52C167.818 27.112 169.034 26.088 170.41 25.448C171.786 24.776 173.178 24.44 174.586 24.44C175.77 24.44 176.89 24.616 177.946 24.968C179.034 25.32 179.786 25.816 180.202 26.456C180.394 26.744 180.554 27.272 180.682 28.04C181.706 26.792 182.874 25.88 184.186 25.304C185.498 24.728 186.81 24.44 188.122 24.44C189.306 24.44 190.426 24.616 191.482 24.968C192.57 25.32 193.322 25.816 193.738 26.456ZM202.592 22.184C201.504 22.184 200.56 21.816 199.76 21.08C198.992 20.344 198.608 19.464 198.608 18.44C198.608 17.416 198.992 16.536 199.76 15.8C200.56 15.064 201.504 14.696 202.592 14.696C203.68 14.696 204.608 15.064 205.376 15.8C206.144 16.536 206.528 17.416 206.528 18.44C206.528 19.464 206.144 20.344 205.376 21.08C204.608 21.816 203.68 22.184 202.592 22.184ZM198.464 24.92H206.672V47H198.464V24.92ZM232.101 26.312C232.389 26.664 232.597 27.544 232.725 28.952C232.885 30.36 232.965 32.504 232.965 35.384V47H224.757V35.48V33.512C224.757 32.488 224.677 31.848 224.517 31.592C224.261 31.272 223.669 31.112 222.741 31.112C222.293 31.112 221.957 31.128 221.733 31.16C220.837 31.192 219.909 31.4 218.949 31.784V47H210.741V24.92H217.413L218.325 28.616C220.629 25.832 223.381 24.44 226.581 24.44C227.733 24.44 228.805 24.6 229.797 24.92C230.821 25.24 231.589 25.704 232.101 26.312ZM246.933 37.928C246.933 38.504 246.949 39.112 246.981 39.752C247.013 40.36 247.109 40.744 247.269 40.904C247.493 41.128 248.277 41.24 249.621 41.24L251.253 41.192C251.541 42.728 251.685 44.504 251.685 46.52C251.077 46.744 250.181 46.952 248.997 47.144C247.845 47.336 246.741 47.432 245.685 47.432C243.477 47.432 241.765 46.952 240.549 45.992C239.365 45 238.773 43.48 238.773 41.432V29.624H235.173V25.256L238.773 24.92L240.933 19.64L246.933 19.304V24.92H252.021V29.624H246.933V37.928Z" fill="white"/>
<defs>
<linearGradient id="paint0_linear_103_19" x1="17.3897" y1="37.25" x2="17.3893" y2="55" gradientUnits="userSpaceOnUse">
<stop stop-color="#FF489A"/>
<stop offset="1" stop-color="#FF484B"/>
</linearGradient>
<linearGradient id="paint1_linear_103_19" x1="21.5889" y1="29.7122" x2="21.5881" y2="55.6633" gradientUnits="userSpaceOnUse">
<stop stop-color="#00299C"/>
<stop offset="1" stop-color="#0048E5"/>
</linearGradient>
</defs>
</svg>
