<svg width="16" height="16" viewBox="0 0 12 12" fill="none" xmlns="http://www.w3.org/2000/svg">
<path fill-rule="evenodd" clip-rule="evenodd" d="M6 12C9.31371 12 12 9.31371 12 6C12 2.68629 9.31371 0 6 0C2.68629 0 0 2.68629 0 6C0 9.31371 2.68629 12 6 12ZM6 9.81818C8.10872 9.81818 9.81818 8.10872 9.81818 6C9.81818 3.89128 8.10872 2.18182 6 2.18182C3.89128 2.18182 2.18182 3.89128 2.18182 6C2.18182 8.10872 3.89128 9.81818 6 9.81818Z" fill="#0085FF"/>
<path d="M4 6L5.5 7.5L8.5 4.5" stroke="#0085FF" stroke-width="1.5"/>
</svg>
